<svg height="512pt" viewBox="0 0 512 512" width="512pt" xmlns="http://www.w3.org/2000/svg" xmlns:xlink="http://www.w3.org/1999/xlink"><linearGradient id="a" gradientUnits="userSpaceOnUse" x1="74.9807" x2="437.0193" y1="74.9807" y2="437.0193"><stop offset="0" stop-color="#0065a3"/><stop offset="1" stop-color="#005285"/></linearGradient><linearGradient id="b" gradientUnits="userSpaceOnUse" x1="116.1915" x2="395.8085" y1="116.1915" y2="395.8085"><stop offset="0" stop-color="#cde5ea"/><stop offset="1" stop-color="#a8d3d8"/></linearGradient><linearGradient id="c" gradientUnits="userSpaceOnUse" x1="132.5786" x2="379.4214" y1="132.5786" y2="379.4214"><stop offset="0" stop-color="#4ad2f5"/><stop offset="1" stop-color="#00abe9"/></linearGradient><path d="m512 256c0 141.386719-114.613281 256-256 256s-256-114.613281-256-256 114.613281-256 256-256 256 114.613281 256 256zm0 0" fill="url(#a)"/><path d="m256 58c-108.824219 0-198 89.175781-198 198s89.175781 198 198 198 198-89.175781 198-198-89.175781-198-198-198zm0 0" fill="url(#b)"/><path d="m256 81.203125c-96.0625 0-174.796875 78.734375-174.796875 174.796875s78.734375 174.796875 174.796875 174.796875 174.796875-78.734375 174.796875-174.796875-78.734375-174.796875-174.796875-174.796875zm0 0" fill="url(#c)"/><path d="m279.203125 128.382812h-104.414063v255.234376h46.40625v-92.8125h58.007813c44.78125 0 81.210937-36.429688 81.210937-81.210938s-36.429687-81.210938-81.210937-81.210938zm0 116.015626h-58.007813v-69.609376h58.007813c19.257813 0 34.804687 15.546876 34.804687 34.804688s-15.546874 34.804688-34.804687 34.804688zm0 0" fill="#deecf1"/></svg>