<svg height="512pt" viewBox="-69 0 512 512" width="512pt" xmlns="http://www.w3.org/2000/svg"><path d="m290.511719 402.460938h49.449219v77.953124h-49.449219zm0 0" fill="#ff6523"/><path d="m271.96875 417.914062h33.996094v47.046876h-33.996094zm0 0" fill="#ff852b"/><path d="m188.523438 402.460938h83.445312v77.953124h-83.445312zm0 0" fill="#ffa433"/><path d="m120.53125 402.460938h83.445312v77.953124h-83.445312zm0 0" fill="#ff852b"/><path d="m52.539062 402.460938h83.445313v77.953124h-83.445313zm0 0" fill="#ffa433"/><path d="m0 417.914062v47.046876h33.996094l33.996094 15.453124v-77.953124l-33.996094 15.453124zm0 0" fill="#ff852b"/><path d="m373.957031 370.863281v47.050781h-33.996093l-30.90625-23.523437 30.90625-23.527344zm0 0" fill="#ffa433"/><path d="m339.960938 370.863281v47.050781h-33.996094l-30.90625-23.523437 30.90625-23.527344zm0 0" fill="#ffc43b"/><path d="m237.972656 370.863281-30.90625 23.527344 30.90625 23.523437h67.992188v-47.050781zm0 0" fill="#ffd87c"/><path d="m169.980469 370.863281-30.90625 23.527344 30.90625 23.523437h67.992187v-47.050781zm0 0" fill="#ffc43b"/><path d="m101.988281 370.863281-30.90625 23.527344 30.90625 23.523437h67.992188v-47.050781zm0 0" fill="#ffd87c"/><path d="m33.996094 370.863281h67.992187v47.050781h-67.992187zm0 0" fill="#ffc43b"/><path d="m373.957031 464.953125v47.046875h-33.996093l-30.90625-23.523438 30.90625-23.523437zm0 0" fill="#ffa433"/><path d="m339.960938 464.953125v47.046875h-33.996094l-30.90625-23.523438 30.90625-23.523437zm0 0" fill="#ffc43b"/><path d="m237.972656 464.953125-30.90625 23.523437 30.90625 23.523438h67.992188v-47.046875zm0 0" fill="#ffd87c"/><path d="m169.980469 464.953125-30.90625 23.523437 30.90625 23.523438h67.992187v-47.046875zm0 0" fill="#ffc43b"/><path d="m101.988281 464.953125-30.90625 23.523437 30.90625 23.523438h67.992188v-47.046875zm0 0" fill="#ffd87c"/><path d="m33.996094 464.953125h67.992187v47.046875h-67.992187zm0 0" fill="#ffc43b"/><path d="m186.976562 0v339.960938c93.730469 0 169.980469-76.253907 169.980469-169.980469 0-93.722657-76.25-169.980469-169.980469-169.980469zm0 0" fill="#ffa433"/><path d="m326.050781 169.980469c0-93.722657-62.386719-169.980469-139.074219-169.980469-93.726562 0-169.980468 76.257812-169.980468 169.980469 0 93.726562 76.253906 169.980469 169.980468 169.980469 76.6875 0 139.074219-76.253907 139.074219-169.980469zm0 0" fill="#ffc43b"/><path d="m186.976562 309.054688c-76.683593 0-139.074218-62.390626-139.074218-139.074219 0-76.6875 62.390625-139.074219 139.074218-139.074219 76.6875 0 139.074219 62.386719 139.074219 139.074219 0 76.683593-62.386719 139.074219-139.074219 139.074219zm0 0" fill="#ffd87c"/><path d="m186.976562 61.8125v216.335938c59.644532 0 108.171876-48.523438 108.171876-108.167969s-48.527344-108.167969-108.171876-108.167969zm0 0" fill="#d6faff"/><path d="m264.242188 169.980469c0-59.644531-34.660157-108.167969-77.265626-108.167969-59.644531 0-108.167968 48.523438-108.167968 108.167969s48.523437 108.167969 108.167968 108.167969c42.605469 0 77.265626-48.523438 77.265626-108.167969zm0 0" fill="#fff"/><g fill="#ffc43b"><path d="m163.796875 108.167969h46.359375v123.621093h-46.359375zm0 0"/><path d="m161.222656 100.441406c-4.265625 0-7.726562 3.460938-7.726562 7.726563 0 4.269531 3.460937 7.726562 7.726562 7.726562h48.933594v-15.453125zm0 0"/><path d="m212.730469 239.515625h-51.507813c-4.265625 0-7.726562-3.457031-7.726562-7.726563 0-4.265624 3.460937-7.726562 7.726562-7.726562h51.507813c4.269531 0 7.726562 3.460938 7.726562 7.726562 0 4.269532-3.457031 7.726563-7.726562 7.726563zm0 0"/></g></svg>