<svg id="Capa_1" enable-background="new 0 0 512 512" height="512" viewBox="0 0 512 512" width="512" xmlns="http://www.w3.org/2000/svg"><g><path d="m481.411 309.493-12.45-53.527-3.929 1.881-3.863 40.048-26.012 64.386-1.7 11.758c2.506 5.624 6.585 11.035 13.217 12.846.156.043.311.085.465.127 10.262 2.809 20.803-3.437 23.27-13.786l10.953-45.94c1.394-5.846 1.411-11.938.049-17.793z" fill="#ffcebe"/><path d="m382.503 57.025-29.588 33.633-30.562 70.395 5.429 8.465c4.106-1.328 8.598-1.969 13.531-1.717 36.512 1.865 31.265 38.331 24.928 48.548-4.16 6.708-13.31 21.964-19.104 31.65-2.949 4.931-8.775 7.296-14.328 5.817-11.691-3.114-32.419-7.152-49.482-2.595-8.454 2.258-14.369 9.877-14.492 18.627-.07 5.006 3.366 9.382 8.248 10.498l66.862 15.299c8.931 2.043 18.258-.794 24.581-7.424 7.967-8.353 19.003-21.227 28.525-37.036 1.526-2.534 5.417-1.361 5.258 1.594-.583 10.794-1.359 26.282-1.591 36.272-.076 3.238-1.586 6.249-4.151 8.227-11.835 9.127-46.058 36.522-57.688 56.735-3.691 6.415-3.689 14.297.03 20.697 3.377 5.811 11.1 7.317 16.413 3.201l44.258-34.293c1.438-1.114 3.382.504 2.544 2.118-6.998 13.484-19.987 42.471-9.467 54.511.081.094.164.187.245.28 7.406 8.419 20.893 7.06 26.704-2.531 16.822-27.763 47.306-82.555 48.846-117.339 2.133-48.169-3.892-93.745 8.7-134.272 1.814-5.839 3.34-10.751 4.669-15.029v-5.159z" fill="#ffdecf"/><g fill="#ffcebe"><path d="m356.687 42.039c-14.72 16.69-33.935 37.102-49.908 49.442-30.572 23.618-71.116 123.715-66.221 142.106 4.895 18.39 34.699 12.458 43.209-4.235 7.36-14.438 17.726-51.333 44.015-59.833 6.524-47.145 45.179-94.081 58.968-109.536l-25.762-17.943h-4.301z"/><path d="m413.934 203.826c-4.267 0-7.726 3.459-7.726 7.726 0 10.007-2.842 24.358-8.274 38.709 1.779-1.182 4.508.033 4.374 2.518-.416 7.698-.929 17.776-1.273 26.551 13.56-22.529 20.626-50.183 20.626-67.779-.001-4.266-3.46-7.725-7.727-7.725z"/><path d="m449.189 225.605c-4.255-.412-8.026 2.692-8.44 6.94l-7.508 76.933c-.512 4.804-2.859 9.127-6.666 12.22l-26.028 21.56c1.179-.049 2.233 1.213 1.576 2.479-3.183 6.133-7.599 15.472-10.485 24.965l44.737-37.057c6.942-5.638 11.286-13.64 12.24-22.6l7.514-77.001c.414-4.246-2.693-8.025-6.94-8.439z"/></g><path d="m507.132 86.954-94.815-67.225c-4.074.114-8.031 2.155-10.373 5.893l-16.208 25.866c-2.431 3.88-2.728 8.497-1.221 12.5l91.973 65.21c5.937 4.209 14.178 2.683 18.214-3.374l15.36-23.053c3.463-5.198 2.164-12.206-2.93-15.817z" fill="#dbedff"/><path d="m386.258 51.732 15.903-25.38c2.521-4.023 6.947-6.07 11.342-5.782l-24.772-17.564c-5.411-3.837-12.935-2.334-16.457 3.287l-14.789 23.602c-3.635 5.801-2.111 13.43 3.473 17.389l24.28 17.215c-1.7-4.037-1.467-8.799 1.02-12.767z" fill="#b5dcff"/><path d="m30.589 202.507 12.45 53.527 3.929-1.881 3.863-40.048 26.012-64.386 1.7-11.758c-2.506-5.624-6.585-11.035-13.218-12.846-.156-.043-.311-.085-.465-.127-10.262-2.809-20.803 3.437-23.27 13.786l-10.953 45.94c-1.393 5.846-1.41 11.938-.048 17.793z" fill="#ffb1a0"/><path d="m228.233 282.648c-8.51 16.693-21.032 63.415-57.546 61.55-17.477-.893-25.383-9.714-28.184-19.789h-10.391l-29.91 87.664 4.326 26.905 44.484 30.983h4.3c14.72-16.69 33.935-37.102 49.908-49.442 30.572-23.618 71.116-123.715 66.221-142.106s-34.698-12.457-43.208 4.235z" fill="#ffdecf"/><path d="m142.503 324.41c-3.051-10.973-.047-23.432 3.257-28.759 4.16-6.708 13.31-21.964 19.104-31.65 2.949-4.931 8.775-7.296 14.328-5.817 11.691 3.114 32.419 7.152 49.482 2.595 8.454-2.258 14.369-9.877 14.492-18.627v-.001c.07-5.006-3.366-9.382-8.248-10.498l-66.862-15.299c-8.931-2.044-18.258.794-24.581 7.424-7.967 8.354-19.003 21.227-28.525 37.036-1.526 2.534-5.417 1.361-5.258-1.594.583-10.794 1.359-26.282 1.591-36.272.076-3.238 1.586-6.249 4.151-8.227 11.835-9.127 46.058-36.521 57.688-56.735 3.691-6.415 3.689-14.297-.03-20.697-3.377-5.811-11.1-7.317-16.413-3.201l-44.258 34.293c-1.438 1.114-3.382-.504-2.544-2.118 6.998-13.484 19.987-42.471 9.467-54.511-.081-.094-.164-.187-.245-.28-7.406-8.419-20.893-7.06-26.704 2.531-16.822 27.763-47.306 82.555-48.846 117.339-2.133 48.169 3.892 93.745-8.7 134.272-1.814 5.839-3.34 10.751-4.669 15.029v5.159l82.446 57.423c-4.449-53.487 17.264-97.97 29.877-118.815z" fill="#ffcebe"/><path d="m98.066 308.174c4.267 0 7.726-3.459 7.726-7.726 0-10.007 2.842-24.358 8.274-38.709-1.779 1.182-4.508-.033-4.374-2.518.416-7.698.929-17.776 1.273-26.551-13.56 22.529-20.626 50.183-20.626 67.779.001 4.266 3.46 7.725 7.727 7.725z" fill="#ffb1a0"/><path d="m62.811 286.395c4.255.412 8.026-2.692 8.44-6.94l7.508-76.933c.512-4.804 2.859-9.127 6.666-12.22l26.028-21.56c-1.179.049-2.233-1.213-1.576-2.479 3.183-6.133 7.599-15.472 10.485-24.965l-44.737 37.057c-6.942 5.638-11.286 13.64-12.24 22.6l-7.514 77.001c-.414 4.246 2.693 8.025 6.94 8.439z" fill="#ffb1a0"/><path d="m151.042 464.716-40.065-28.407c-4.206.455-8.195 2.664-10.732 6.472l-17.612 26.434c-1.944 2.918-2.555 6.33-2.009 9.543l42.646 30.236c5.411 3.837 12.935 2.334 16.457-3.287l14.789-23.602c3.634-5.801 2.11-13.43-3.474-17.389z" fill="#dbedff"/><path d="m83.253 469.427 17.242-25.878c2.707-4.062 7.1-6.292 11.618-6.435l-76.602-54.311c-5.937-4.21-14.178-2.683-18.214 3.374l-15.359 23.053c-3.462 5.197-2.164 12.204 2.93 15.816l76.503 54.241c-.696-3.293-.126-6.846 1.882-9.86z" fill="#b5dcff"/></g></svg>